:SAMPLES-PER-SECOND 30
:FULLY-SPECIFIED
:DEGREES
1
root  -92.5573 17.6251 -1.71193 38.5237 82.5977 55.5861
RightUpLeg  -40.607 1.67733 -7.44836
RightLeg  141.946 9.57929 2.21839
RightFoot  -36.8836 2.37948 11.2751
RightToes  -2.32832e-010 -1.59028e-015 9.93923e-017
Spine  62.9917 0.827952 -2.16582
Spine1  11.4707 1.81103 -10.0777
HEad  -34.2698 0.21344 4.73974
LeftShoulder1  9.93923e-017 0 1.22299e-017
LeftArm  -9.51698 -57.0926 -67.8567
LeftForeArm  -129.109 -50.5352 166.549
LeftHand  0.0460958 3.71303 15.1433
RightShoulder  1.98785e-016 -4.96962e-017 1.55301e-017
RightArm  -43.5208 45.4731 61.99
RightForeArm  54.8532 39.3504 -166.425
RightHand  -0.937807 1.82125 -10.5327
LeftUpLeg  -81.2685 -4.01677 -5.19348
LeftLeg  109.374 -17.1023 8.1843
LeftFoot  -12.8329 -0.0281173 -1.83658
LeftToes  1.49248e-009 -4.82331e-011 8.60243e-011
2
root  -92.0661 18.2895 -1.76791 31.8747 83.4095 47.7339
RightUpLeg  -39.0052 1.98549 -6.7464
RightLeg  139.487 8.17729 3.44222
RightFoot  -37.6414 2.45803 11.2771
RightToes  -2.32832e-010 -1.59028e-015 9.93923e-017
Spine  63.0347 0.595781 -1.51344
Spine1  10.6514 2.01192 -10.2743
HEad  -33.4405 -0.361851 4.7381
LeftShoulder1  9.93923e-017 0 1.22299e-017
LeftArm  -9.12333 -56.9004 -67.6623
LeftForeArm  -129.678 -50.4437 166.667
LeftHand  0.169155 4.12538 14.8602
RightShoulder  1.98785e-016 -4.96962e-017 1.55301e-017
RightArm  -42.8915 45.4936 62.5515
RightForeArm  55.2862 39.4255 -166.384
RightHand  -0.869501 1.70781 -9.88547
LeftUpLeg  -79.93 -4.09744 -4.2263
LeftLeg  108.869 -17.0544 8.31668
LeftFoot  -14.4336 -0.0588381 -1.88767
LeftToes  1.49248e-009 -4.82331e-011 8.60243e-011
3
root  -91.199 19.4724 -1.84404 18.9402 84.604 32.692
RightUpLeg  -37.3959 1.80663 -5.39379
RightLeg  134.983 7.17427 4.77185
RightFoot  -34.9834 2.31466 11.9415
RightToes  -2.32832e-010 -1.59028e-015 9.93923e-017
Spine  63.1393 0.362051 -0.758058
Spine1  9.12101 2.28106 -10.4373
HEad  -31.9466 -0.735884 4.96773
LeftShoulder1  9.93923e-017 0 1.22299e-017
LeftArm  -8.13298 -56.4567 -67.4788
LeftForeArm  -129.878 -50.3801 166.734
LeftHand  0.424033 4.95966 13.6804
RightShoulder  1.98785e-016 -4.96962e-017 1.55301e-017
RightArm  -42.3057 45.111 63.3145
RightForeArm  55.5382 39.3851 -166.443
RightHand  -0.823186 1.87019 -8.87346
LeftUpLeg  -77.4461 -4.21184 -2.77951
LeftLeg  107.635 -16.8426 8.42043
LeftFoot  -17.0618 -0.111119 -1.93132
LeftToes  1.49248e-009 -4.82331e-011 8.60243e-011
4
root  -90.2765 20.6874 -1.90591 1.905 85.5043 13.5119
RightUpLeg  -37.6557 0.630606 -3.77161
RightLeg  130.869 7.9397 4.47185
RightFoot  -26.6849 1.37769 11.5379
RightToes  -2.32832e-010 -1.59028e-015 9.93923e-017
Spine  63.0893 0.442128 -0.395887
Spine1  7.53939 2.53941 -10.2153
HEad  -30.8067 -0.444856 5.35127
LeftShoulder1  9.93923e-017 0 1.22299e-017
LeftArm  -8.31756 -55.9948 -66.7492
LeftForeArm  -130.468 -50.1895 166.933
LeftHand  0.466505 5.07764 13.1032
RightShoulder  1.98785e-016 -4.96962e-017 1.55301e-017
RightArm  -42.2113 44.2874 63.685
RightForeArm  55.086 39.3556 -166.437
RightHand  -0.79099 2.09711 -7.94631
LeftUpLeg  -74.891 -4.33736 -1.40635
LeftLeg  106.094 -16.5209 8.3968
LeftFoot  -19.3396 -0.16077 -2.02053
LeftToes  1.49248e-009 -4.82331e-011 8.60243e-011
5
root  -89.5155 21.5604 -1.94946 -15.5222 85.9993 -5.33477
RightUpLeg  -40.2372 -1.1966 -2.01929
RightLeg  129.073 9.80488 2.48891
RightFoot  -17.2525 0.310187 8.55015
RightToes  -2.32832e-010 -1.59028e-015 9.93923e-017
Spine  62.9088 0.710515 -0.454785
Spine1  6.50952 2.73643 -9.62477
HEad  -30.699 0.307389 5.63391
LeftShoulder1  9.93923e-017 0 1.22299e-017
LeftArm  -8.88901 -55.7205 -65.8758
LeftForeArm  -130.865 -50.2069 166.948
LeftHand  0.497114 5.15886 12.5906
RightShoulder  1.98785e-016 -4.96962e-017 1.55301e-017
RightArm  -42.2862 43.5028 63.644
RightForeArm  54.2921 39.5359 -166.201
RightHand  -0.767527 2.25242 -7.31992
LeftUpLeg  -73.0717 -4.77062 -0.21224
LeftLeg  105.158 -16.255 8.16539
LeftFoot  -20.2891 -0.219358 -2.67001
LeftToes  1.49248e-009 -4.82331e-011 8.60243e-011
6
root  -88.7446 22.1748 -2.00947 -36.0784 86.0015 -26.4438
RightUpLeg  -43.8344 -2.96307 0.18141
RightLeg  128.83 11.7835 0.165817
RightFoot  -13.7412 0.0268489 4.82838
RightToes  -2.32832e-010 -1.59028e-015 9.93923e-017
Spine  62.8447 0.679151 -0.386767
Spine1  6.13207 2.8072 -8.93421
HEad  -31.0127 0.981094 5.80451
LeftShoulder1  9.93923e-017 0 1.22299e-017
LeftArm  -9.60621 -55.6122 -64.7611
LeftForeArm  -130.954 -50.4179 166.784
LeftHand  0.517903 5.22526 12.3763
RightShoulder  1.98785e-016 -4.96962e-017 1.55301e-017
RightArm  -41.8844 43.0998 63.8505
RightForeArm  53.7831 39.8646 -165.836
RightHand  -0.743166 2.27688 -6.9568
LeftUpLeg  -71.3785 -5.62916 1.21586
LeftLeg  105.244 -16.1199 7.72327
LeftFoot  -20.3163 -0.313801 -4.22196
LeftToes  1.49248e-009 -4.82331e-011 8.60243e-011
7
root  -87.8022 22.7535 -2.1146 -54.5199 85.1972 -44.8187
RightUpLeg  -47.7686 -4.27738 2.78015
RightLeg  128.041 13.0992 -1.44658
RightFoot  -16.7502 0.0770385 2.43615
RightToes  -2.32832e-010 -1.59028e-015 9.93923e-017
Spine  62.8837 0.183034 0.135471
Spine1  6.32574 2.70128 -8.23785
HEad  -30.7025 1.36316 6.09096
LeftShoulder1  9.93923e-017 0 1.22299e-017
LeftArm  -10.0308 -55.5497 -63.7379
LeftForeArm  -130.947 -50.5578 166.67
LeftHand  0.53061 5.27734 12.4053
RightShoulder  1.98785e-016 -4.96962e-017 1.55301e-017
RightArm  -40.9704 42.7947 64.6063
RightForeArm  53.5089 40.1066 -165.572
RightHand  -0.671833 2.12059 -6.33285
LeftUpLeg  -68.9265 -6.49599 2.85284
LeftLeg  105.857 -16.0717 7.26686
LeftFoot  -20.2285 -0.422871 -6.10766
LeftToes  1.49248e-009 -4.82331e-011 8.60243e-011
8
root  -86.8074 23.2408 -2.24773 -63.5329 84.0837 -53.348
RightUpLeg  -52.8136 -5.05332 5.36078
RightLeg  125.614 12.8135 -1.315
RightFoot  -21.1549 0.125552 1.79827
RightToes  -2.32832e-010 -1.59028e-015 9.93923e-017
Spine  62.7815 -0.462796 0.737868
Spine1  6.98912 2.46077 -7.54087
HEad  -29.6773 1.65667 6.51125
LeftShoulder1  9.93923e-017 0 1.22299e-017
LeftArm  -9.98567 -55.507 -63.3713
LeftForeArm  -131.078 -50.457 166.762
LeftHand  0.535684 5.29718 12.4035
RightShoulder  1.98785e-016 -4.96962e-017 1.55301e-017
RightArm  -40.3417 42.2206 65.2543
RightForeArm  52.997 40.263 -165.373
RightHand  -0.551247 1.80555 -5.31779
LeftUpLeg  -65.9471 -6.90266 4.06099
LeftLeg  106.639 -16.1217 7.02567
LeftFoot  -20.3695 -0.52505 -7.65142
LeftToes  1.49248e-009 -4.82331e-011 8.60243e-011
9
root  -85.8642 23.4651 -2.37547 -67.7659 83.0577 -56.6788
RightUpLeg  -58.9177 -5.35785 7.96007
RightLeg  121.236 11.232 0.679045
RightFoot  -23.0882 0.145463 1.67906
RightToes  -2.32832e-010 -1.59028e-015 9.93923e-017
Spine  62.6861 -1.11628 1.24802
Spine1  7.74868 2.1609 -6.91578
HEad  -28.5893 2.05342 6.83113
LeftShoulder1  9.93923e-017 0 1.22299e-017
LeftArm  -9.69368 -55.4321 -63.715
LeftForeArm  -131.405 -50.22 166.978
LeftHand  0.545645 5.321 12.1718
RightShoulder  1.98785e-016 -4.96962e-017 1.55301e-017
RightArm  -40.2668 41.4823 65.2999
RightForeArm  52.1848 40.64 -164.923
RightHand  -0.393319 1.31679 -4.00024
LeftUpLeg  -63.0237 -6.8104 4.81695
LeftLeg  107.972 -16.2908 6.85813
LeftFoot  -20.9093 -0.652456 -9.01101
LeftToes  1.49248e-009 -4.82331e-011 8.60243e-011
10
root  -84.9316 23.3989 -2.4898 -72.7497 81.7975 -60.2811
RightUpLeg  -64.6563 -5.60368 10.8525
RightLeg  114.66 10.0676 2.88979
RightFoot  -22.717 0.159443 1.90975
RightToes  -2.32832e-010 -1.59028e-015 9.93923e-017
Spine  63.0632 -2.02679 2.06339
Spine1  8.02962 1.77511 -6.35192
HEad  -27.7084 2.54548 7.00048
LeftShoulder1  9.93923e-017 0 1.22299e-017
LeftArm  -9.36431 -55.1904 -64.334
LeftForeArm  -131.847 -50.0436 167.153
LeftHand  0.572647 5.40471 11.804
RightShoulder  1.98785e-016 -4.96962e-017 1.55301e-017
RightArm  -40.1767 40.784 65.1668
RightForeArm  51.3268 41.2562 -164.208
RightHand  -0.233127 0.603523 -2.87497
LeftUpLeg  -60.2383 -6.52118 5.84299
LeftLeg  110.257 -16.5274 6.47147
LeftFoot  -21.7854 -0.823891 -10.3603
LeftToes  1.49248e-009 -4.82331e-011 8.60243e-011
11
root  -84.0442 23.0866 -2.59119 -78.2757 80.1987 -64.0808
RightUpLeg  -69.438 -6.13663 13.8671
RightLeg  106.432 10.2169 3.31809
RightFoot  -21.3452 0.21798 3.03783
RightToes  -2.32832e-010 -1.59028e-015 9.93923e-017
Spine  63.9229 -3.13731 3.24376
Spine1  7.81893 1.26441 -5.61199
HEad  -26.8584 3.03125 7.23425
LeftShoulder1  9.93923e-017 0 1.22299e-017
LeftArm  -8.90459 -54.8002 -65.0469
LeftForeArm  -132.265 -49.9966 167.222
LeftHand  0.606207 5.52345 11.5328
RightShoulder  1.98785e-016 -4.96962e-017 1.55301e-017
RightArm  -39.6366 40.0835 65.3549
RightForeArm  50.3956 41.7559 -163.594
RightHand  -0.0731722 -0.417489 -2.10583
LeftUpLeg  -57.7646 -6.19321 7.35891
LeftLeg  113.347 -16.8003 5.92367
LeftFoot  -22.4994 -0.957375 -11.1867
LeftToes  1.49248e-009 -4.82331e-011 8.60243e-011
12
root  -83.2475 22.5017 -2.64115 -82.2597 78.8883 -66.2435
RightUpLeg  -73.4174 -6.53005 16.0279
RightLeg  97.9879 10.6991 2.47374
RightFoot  -20.0781 0.241957 3.98088
RightToes  -2.32832e-010 -1.59028e-015 9.93923e-017
Spine  64.6039 -3.91911 4.11971
Spine1  7.73155 0.69657 -4.5456
HEad  -26.1464 3.42756 7.57927
LeftShoulder1  9.93923e-017 0 1.22299e-017
LeftArm  -8.22716 -54.5091 -66.0304
LeftForeArm  -132.575 -50.015 167.23
LeftHand  0.626307 5.59924 11.4306
RightShoulder  1.98785e-016 -4.96962e-017 1.55301e-017
RightArm  -39.1891 39.4807 65.5207
RightForeArm  49.264 41.9587 -163.278
RightHand  0.0658485 -1.58794 -1.86686
LeftUpLeg  -55.8246 -5.69544 8.7647
LeftLeg  117.133 -17.0276 5.16529
LeftFoot  -23.2223 -1.03776 -11.2674
LeftToes  1.49248e-009 -4.82331e-011 8.60243e-011
13
root  -82.4395 21.6728 -2.59633 -86.1902 78.364 -68.4704
RightUpLeg  -76.1034 -6.42687 16.24
RightLeg  90.7475 10.8632 2.78418
RightFoot  -19.3573 0.247513 4.53978
RightToes  -2.32832e-010 -1.59028e-015 9.93923e-017
Spine  64.631 -4.275 4.25601
Spine1  8.13222 0.0975247 -3.25885
HEad  -25.9298 3.676 7.77518
LeftShoulder1  9.93923e-017 0 1.22299e-017
LeftArm  -7.51159 -54.4764 -67.2642
LeftForeArm  -132.788 -50.0163 167.245
LeftHand  0.631267 5.61762 11.3983
RightShoulder  1.98785e-016 -4.96962e-017 1.55301e-017
RightArm  -39.3204 39.3618 65.2119
RightForeArm  48.117 42.194 -162.921
RightHand  0.198362 -2.7857 -1.77279
LeftUpLeg  -54.0422 -5.10876 9.76196
LeftLeg  121.607 -16.8204 3.71572
LeftFoot  -24.9569 -1.20511 -11.1662
LeftToes  1.49248e-009 -4.82331e-011 8.60243e-011
